<svg width="35" height="35" viewBox="0 0 35 35" fill="none" xmlns="http://www.w3.org/2000/svg">
<path d="M17.5 0C18.1743 0 18.7209 0.546635 18.7209 1.22093V2.84884C18.7209 3.52313 18.1743 4.06977 17.5 4.06977C16.8257 4.06977 16.2791 3.52313 16.2791 2.84884V1.22093C16.2791 0.546635 16.8257 0 17.5 0Z" fill="white"/>
<path fill-rule="evenodd" clip-rule="evenodd" d="M8.13953 17.5C8.13953 12.3304 12.3304 8.13953 17.5 8.13953C22.6696 8.13953 26.8605 12.3304 26.8605 17.5C26.8605 22.6696 22.6696 26.8605 17.5 26.8605C12.3304 26.8605 8.13953 22.6696 8.13953 17.5ZM17.5 10.5814C13.679 10.5814 10.5814 13.679 10.5814 17.5C10.5814 21.321 13.679 24.4186 17.5 24.4186C21.321 24.4186 24.4186 21.321 24.4186 17.5C24.4186 13.679 21.321 10.5814 17.5 10.5814Z" fill="white"/>
<path d="M6.85232 5.12566C6.3755 4.64886 5.60246 4.64886 5.12566 5.12566C4.64885 5.60247 4.64885 6.37552 5.12566 6.85233L6.27675 8.00343C6.75357 8.48024 7.52661 8.48024 8.00341 8.00343C8.48022 7.52663 8.48022 6.75357 8.00341 6.27677L6.85232 5.12566Z" fill="white"/>
<path d="M35 17.5C35 18.1743 34.4533 18.7209 33.7791 18.7209H32.1512C31.4769 18.7209 30.9302 18.1743 30.9302 17.5C30.9302 16.8257 31.4769 16.2791 32.1512 16.2791H33.7791C34.4533 16.2791 35 16.8257 35 17.5Z" fill="white"/>
<path d="M29.8744 6.85232C30.3512 6.3755 30.3512 5.60246 29.8744 5.12566C29.3976 4.64885 28.6245 4.64885 28.1477 5.12566L26.9966 6.27675C26.5197 6.75357 26.5197 7.52661 26.9966 8.00341C27.4734 8.48022 28.2465 8.48022 28.7233 8.00341L29.8744 6.85232Z" fill="white"/>
<path d="M17.5 30.9302C18.1743 30.9302 18.7209 31.4769 18.7209 32.1512V33.7791C18.7209 34.4533 18.1743 35 17.5 35C16.8257 35 16.2791 34.4533 16.2791 33.7791V32.1512C16.2791 31.4769 16.8257 30.9302 17.5 30.9302Z" fill="white"/>
<path d="M28.7233 26.9966C28.2465 26.5197 27.4735 26.5197 26.9967 26.9966C26.5199 27.4734 26.5199 28.2465 26.9967 28.7233L28.1478 29.8744C28.6246 30.3512 29.3976 30.3512 29.8744 29.8744C30.3512 29.3976 30.3512 28.6245 29.8744 28.1477L28.7233 26.9966Z" fill="white"/>
<path d="M4.06977 17.5C4.06977 18.1743 3.52313 18.7209 2.84884 18.7209H1.22093C0.546635 18.7209 0 18.1743 0 17.5C0 16.8257 0.546635 16.2791 1.22093 16.2791H2.84884C3.52313 16.2791 4.06977 16.8257 4.06977 17.5Z" fill="white"/>
<path d="M8.00331 28.7233C8.48011 28.2465 8.48011 27.4734 8.00331 26.9966C7.5265 26.5197 6.75345 26.5197 6.27666 26.9966L5.12555 28.1477C4.64875 28.6245 4.64875 29.3976 5.12555 29.8744C5.60234 30.3512 6.3754 30.3512 6.8522 29.8744L8.00331 28.7233Z" fill="white"/>
</svg>
