<svg width="15" height="26" viewBox="0 0 15 26" fill="none" xmlns="http://www.w3.org/2000/svg">
<path d="M0 6.63086C0.102539 4.68262 0.791829 3.09326 2.06787 1.86279C3.35531 0.620931 5.14974 0 7.45117 0C9.58171 0 11.3192 0.586751 12.6636 1.76025C14.0194 2.93376 14.6973 4.40918 14.6973 6.18652C14.6973 8.68164 13.5067 10.647 11.1255 12.0825C10.0545 12.7205 9.31966 13.3244 8.9209 13.894C8.53353 14.4637 8.33984 15.2043 8.33984 16.1157V17.2266H5.34912V15.6543C5.33773 14.5378 5.60547 13.5693 6.15234 12.749C6.71061 11.9287 7.58219 11.1654 8.76709 10.459C9.76969 9.84375 10.4761 9.22852 10.8862 8.61328C11.3078 7.99805 11.5186 7.2404 11.5186 6.34033C11.5186 5.26937 11.1312 4.39209 10.3564 3.7085C9.5931 3.01351 8.5848 2.66602 7.33154 2.66602C6.04411 2.66602 5.00732 3.01921 4.22119 3.72559C3.44645 4.43197 3.01351 5.40039 2.92236 6.63086H0ZM6.85303 25.0195C6.30615 25.0195 5.84473 24.8315 5.46875 24.4556C5.09277 24.0796 4.90479 23.6182 4.90479 23.0713C4.90479 22.513 5.09277 22.0516 5.46875 21.687C5.84473 21.311 6.30615 21.123 6.85303 21.123C7.4113 21.123 7.87272 21.311 8.2373 21.687C8.61328 22.0516 8.80127 22.513 8.80127 23.0713C8.80127 23.6182 8.61328 24.0796 8.2373 24.4556C7.87272 24.8315 7.4113 25.0195 6.85303 25.0195Z" fill="white"/>
</svg>
